<svg width="17" height="17" viewBox="0 0 17 17" fill="none" xmlns="http://www.w3.org/2000/svg">
<path d="M6.035 8.35H5.79239L5.88296 8.18562L5.66352 7.72295L3.28109 2.7H3.5785H15.8983L12.9794 7.99149L12.9782 7.99367C12.8618 8.20595 12.6337 8.35 12.3675 8.35H6.035ZM4.4085 15.3C4.4085 14.9107 4.7238 14.6 5.1 14.6C5.48272 14.6 5.8 14.9173 5.8 15.3C5.8 15.6827 5.48272 16 5.1 16C4.7238 16 4.4085 15.6893 4.4085 15.3ZM12.9085 15.3C12.9085 14.9107 13.2238 14.6 13.6 14.6C13.9827 14.6 14.3 14.9173 14.3 15.3C14.3 15.6827 13.9827 16 13.6 16C13.2238 16 12.9085 15.6893 12.9085 15.3Z" stroke="#474745" stroke-width="2"/>
</svg>
