<svg width="49" height="47" viewBox="0 0 49 47" fill="none" xmlns="http://www.w3.org/2000/svg">
<path d="M15.9039 30.8549H42.9347V34.5249H14.9053C12.5577 34.5249 10.6504 32.6388 10.6504 30.3549C10.6504 29.6251 10.8414 28.9415 11.177 28.3648L11.177 28.3648L11.1808 28.358L14.3904 22.6373L14.518 22.4099L14.4046 22.1752L5.84577 4.45255L5.70931 4.16999H5.39552H1.14062V0.5H8.09986L10.1987 4.88582L10.3347 5.16999H10.6497H45.8122C46.8522 5.16999 47.6896 6.00534 47.6896 7.00499C47.6896 7.32637 47.6119 7.63412 47.4721 7.87434L47.4721 7.87431L47.4684 7.88094L38.9571 23.0351L38.9565 23.0361C38.2365 24.3256 36.8345 25.1849 35.2325 25.1849H17.5205H17.228L17.0847 25.4399L14.945 29.246L14.9126 29.3036L14.8963 29.3677L14.8249 29.6479L14.8095 29.7086V29.7712C14.8095 30.3827 15.3034 30.8549 15.9039 30.8549ZM10.6742 42.0299C10.6742 39.7428 12.561 37.8599 14.9053 37.8599C17.2529 37.8599 19.1602 39.746 19.1602 42.0299C19.1602 44.3138 17.2529 46.1999 14.9053 46.1999C12.561 46.1999 10.6742 44.3171 10.6742 42.0299ZM34.4487 42.0299C34.4487 39.7428 36.3355 37.8599 38.6798 37.8599C41.0274 37.8599 42.9347 39.746 42.9347 42.0299C42.9347 44.3138 41.0274 46.1999 38.6798 46.1999C36.3355 46.1999 34.4487 44.3171 34.4487 42.0299Z" fill="#474745" stroke="black"/>
</svg>
